<svg xmlns="http://www.w3.org/2000/svg" width="256" height="256" viewBox="0 0 100 100"><rect width="100" height="100" rx="20" fill="#c70a22"></rect><path fill="#fff" d="M52.48 28.26L37.63 28.26L37.63 76.59Q37.17 76.77 36.23 77.00Q35.28 77.22 34.30 77.22L34.30 77.22Q30.34 77.22 30.34 73.89L30.34 73.89L30.34 28.26L13.51 28.26Q13.23 27.81 12.96 27.05Q12.70 26.28 12.70 25.29L12.70 25.29Q12.70 23.76 13.41 22.91Q14.13 22.05 15.48 22.05L15.48 22.05L54.45 22.05Q54.73 22.50 54.99 23.27Q55.27 24.03 55.27 24.93L55.27 24.93Q55.27 26.46 54.55 27.36Q53.82 28.26 52.48 28.26L52.48 28.26ZM78.48 77.94L78.48 77.94Q72.19 77.94 68.27 75.15Q64.36 72.36 64.36 65.88L64.36 65.88L64.36 23.13Q64.81 22.95 65.75 22.73Q66.69 22.50 67.78 22.50L67.78 22.50Q71.56 22.50 71.56 25.74L71.56 25.74L71.56 36.09L86.31 36.09Q86.59 36.54 86.86 37.31Q87.13 38.07 87.13 38.97L87.13 38.97Q87.13 42.03 84.42 42.03L84.42 42.03L71.56 42.03L71.56 65.43Q71.56 69.03 73.58 70.52Q75.61 72.00 79.30 72.00L79.30 72.00Q80.83 72.00 82.72 71.46Q84.61 70.92 85.86 70.20L85.86 70.20Q86.41 70.74 86.86 71.55Q87.31 72.36 87.31 73.44L87.31 73.44Q87.31 75.42 84.97 76.68Q82.63 77.94 78.48 77.94Z"></path></svg>